<svg width="417" height="364" viewBox="0 0 417 364" fill="none" xmlns="http://www.w3.org/2000/svg">
<path d="M208.295 364L118.207 254.869C105.186 241.197 98.6758 227.932 98.6758 215.074C98.6758 201.728 103.396 190.335 112.836 180.895C122.276 171.454 133.669 166.734 147.016 166.734H172.895C186.404 166.734 195.762 164.212 200.971 159.166C206.016 154.12 208.539 142.239 208.539 123.521C208.539 104.967 206.016 93.1667 200.971 88.1211C195.762 83.0755 186.404 80.5527 172.895 80.5527H80.6094V364H0.53125V78.3555C0.53125 56.8711 8.09961 38.4792 23.2363 23.1797C38.5358 8.04297 56.9277 0.474609 78.4121 0.474609H172.895C208.539 0.474609 236.697 10.8099 257.367 31.4805C278.038 52.151 288.373 80.39 288.373 116.197C288.373 151.842 278.038 179.999 257.367 200.67C242.068 215.969 220.502 225.735 192.67 229.967L303.266 364H208.295Z" fill="black"/>
<path d="M400.23 273C404.897 273 408.73 274.667 411.73 278C415.064 281 416.73 284.833 416.73 289.5V347.5C416.73 352.167 415.064 356.167 411.73 359.5C408.73 362.5 404.897 364 400.23 364H342.23C337.564 364 333.564 362.5 330.23 359.5C327.23 356.167 325.73 352.167 325.73 347.5V289.5C325.73 284.833 327.23 281 330.23 278C333.564 274.667 337.564 273 342.23 273H400.23Z" fill="#FFAD27"/>
</svg>
